<svg xmlns="http://www.w3.org/2000/svg" width="24.9" height="25.3" fill="none" viewBox="6.50 40.29 24.88 25.31">
  
  <ellipse cx="19.31" cy="61.86" rx="7.711" ry="1.734" fill="#E2CAA4"/>
  <path d="m20.14 59.7c1.36-0.032 2.288 0.848 2.288 1.76 0 0.688-2.32 0.88-3.584 0.88-1.696-0.096-3.232-0.304-3.232-0.96 0-0.912 1.104-1.584 2.192-1.568l2.336-0.112z" fill="#84693B" stroke="#242B1D" stroke-width=".6875"/>
  <path d="m29.04 43.92c-3.76-1.632-9.456 1.216-9.872 6.656-1.168-5.824-7.696-7.2-10.06-5.536-0.608 0.512-0.336 1.6 0.096 2.448 1.6 3.152 5.344 4.928 8.528 4.928 0.48 0.256 0.384 1.392 0.288 2.72-0.144 2-0.144 4.224 0.08 5.088 0.544 1.04 2.144 0.912 2.032-0.192-0.528-3.344-0.368-7.568 0.384-7.728 5.792-0.672 8.832-5.504 8.864-7.808l-0.336-0.576z" fill="#7AA958" stroke="#103625" stroke-width=".775"/>
  <path d="m12.61 46.7c2.416 0.976 4.816 3.056 5.6 4.896" stroke="#467738" stroke-width=".375"/>
  <path d="m25.5 46.03c-2.64 1.008-5.12 3.536-5.632 5.616" stroke="#467738" stroke-width=".375"/>
</svg>
