<svg xmlns="http://www.w3.org/2000/svg" width="32.5" height="54.3" fill="none" viewBox="86.36 67.79 32.46 54.34">
  
  <ellipse cx="100.8" cy="118.4" rx="7.51" ry="1.733" fill="#E3CAA3"/>
  <path d="m101.8 116.8c-3.296-0.192-4.32 0.368-4.304 1.168-0.016 0.784 2 1.056 3.424 1.056 1.792 0 3.056-0.352 3.056-1.056 0-0.832-1.072-1.2-2.176-1.168z" fill="#786341" stroke="#192F2A" stroke-width=".6667"/>
  <path d="m98.54 104.8c0 1.92 1.2 5.392 1.2 8.304-1.024-2.288-2.768-3.28-3.552-2.928-0.752 0.56 0.416 2 1.248 3.216 0.896 1.344 1.28 2.848 1.456 3.632 0.816 1.616 3.84 1.184 4-0.688-0.016-1.76 0.624-3.568 1.408-4.656 0.816-1.136 0.752-3.088 0.352-3.872l-1.92 2.56c-0.528-2.096 0.272-5.008 1.008-6.64l-0.56-1.36-1.568 1.488-1.6 0.464-1.472 0.48z" fill="#748B6F" stroke="#1B312F" stroke-width=".7"/>
  <path d="m105 91.73c-1.024 0.576-1.968 1.856-2.304 2.96l0.128 1.936 2.384-2.512-0.208-2.384z" fill="#8FA386" stroke="#1D3430" stroke-width=".6333"/>
  <path d="m99.5 90.62c-0.4 0.352-0.464 1.264-0.112 2l1.152 3.088 0.752-2.016c-0.352-1.408-1.056-2.736-1.792-3.072z" fill="#7B9176" stroke="#243830" stroke-width=".6667"/>
  <path d="m104.4 82.43c-2.096 4.224-3.024 10.7-3.376 15.1-0.672-2.464-1.84-3.584-2.56-3.264-0.624 0.4-0.432 2.24 0.16 3.072 0.8 1.136 1.568 2.4 1.664 2.96l-0.112 7.52c-0.768-3.024-1.12-4.976-1.632-4.992-0.752 0.032-0.192 2.32 0.368 4.608 0.816 3.392 0.736 7.408 0.816 9.344 0.416 1.76 3.04 1.28 3.12-0.352-0.656-4.848-0.704-12.66-0.256-15.79 1.792-1.312 2.784-3.2 2.592-4.144-0.256-0.624-1.328-0.24-2.016 0.48 0.192-4.192 1.28-10 2.16-13.47l-0.928-1.072z" fill="#778F72" stroke="#203530" stroke-width=".7"/>
  <path d="m107.5 89.94c-1.824-0.16-2.704 0.816-2.48 2.128 0.192 2.416 3.36 4.672 4.704 4.72l0.192-0.48c1.168 0.992 2.56 1.472 2.976 0.88 1.312 0.688 2.784 1.408 3.328 1.008 0.608-0.464 0.176-2.336-0.176-3.136 0.464-0.912-0.272-2.112-1.056-2.72 0.992-0.464-0.736-2.304-2.064-2.624-0.352-2.016-5.408-2.32-5.424 0.224z" fill="#8DA283" stroke="#1D3430" stroke-width=".7333"/>
  <path d="m107.7 103.3c-0.256 0.288-0.304 0.56-0.304 0.128-1.92-0.688-3.424 0.4-3.488 2.272-0.176 2.688 2.944 5.536 4.272 5.76l0.528-0.704c0.768 1.6 2.368 2.656 2.88 1.808 1.232 1.344 2.704 2.576 3.344 2.272 0.784-0.672 1.04-3.328 0.688-4.576 1.088 0.048 0.096-2.784-0.64-3.664 1.136-0.208-0.384-2.016-1.472-2.352 0.864-0.544-0.752-1.904-2.448-2.448-1.392-0.368-2.928-0.048-3.36 1.504z" fill="#8DA283" stroke="#1B3330" stroke-width=".7333"/>
  <path d="m97.1 100.4c-0.24-1.472-1.664-1.92-2.544-1.728-1.504 0.176-2.816 0.88-3.008 1.664-1.472 1.024-2.512 2.304-1.712 2.752-1.056 1.28-1.472 2.768-0.816 2.832-0.368 2.016-0.128 3.888 0.64 4.016 0.704 0 1.984-1.168 2.912-1.424 0.56 0.848 2.336-0.688 3.088-1.664l0.576 0.432c1.824-0.864 3.264-3.76 3.184-5.28-0.096-1.264-1.248-1.808-2.32-1.6z" fill="#8DA283" stroke="#1B3330" stroke-width=".7333"/>
  <path d="m97.63 87.42c0.224-1.456-1.296-2-2.432-1.84-2.032 0.256-3.888 1.232-3.712 2.192-1.2 0.72-1.984 1.728-1.392 2.272-1.008 0.896-1.424 1.92-0.976 2.208-0.56 1.648-0.64 3.456 0.016 3.6 0.672 0.16 1.888-0.512 2.512-1.072 0.352 0.72 1.808-0.464 2.544-0.768 0.512 0.496 1.488-0.624 2.08-1.184l0.368 0.56c1.648-0.56 3.312-2.864 3.392-4.192 0.048-1.408-1.136-2.096-2.4-1.776z" fill="#8DA283" stroke="#1B3330" stroke-width=".7667"/>
  <path d="m108.5 90.62c2.88 0.64 5.904 3.28 6.96 5.824" stroke="#5D7259" stroke-width=".4"/>
  <path d="m108.4 91.14c-0.112 1.136 0.368 2.528 0.896 3.216" stroke="#5D7259" stroke-width=".4"/>
  <path d="m111.8 92.08c-0.048 1.088 0.128 2.464 0.464 3.2" stroke="#5D7259" stroke-width=".4"/>
  <path d="m108 103.6c2.944 0.96 5.824 3.184 6.752 5.456" stroke="#5D7259" stroke-width=".4"/>
  <path d="m108.5 104.7c-0.576 1.2-0.448 2.928-0.064 3.824" stroke="#5D7259" stroke-width=".4"/>
  <path d="m111.6 106.9c-0.112 1.136-0.08 2.576 0.048 3.28" stroke="#5D7259" stroke-width=".4"/>
  <path d="m113.4 110.2c0.672 1.088 1.12 2.768 1.136 3.792" stroke="#5D7259" stroke-width=".4"/>
  <path d="m96.13 101c-2.432 0.976-5.024 3.488-5.808 5.888" stroke="#5D7259" stroke-width=".4"/>
  <path d="m93.23 103.5c-0.192 1.184-0.256 2.656-0.128 3.488" stroke="#5D7259" stroke-width=".4"/>
  <path d="m95.79 101.8c0.432 1.056 0.288 2.608-0.08 3.392" stroke="#5D7259" stroke-width=".4"/>
  <path d="m96.98 87.62c-3.2 0.688-6.608 3.408-7.584 6.48" stroke="#5D7259" stroke-width=".4"/>
  <path d="m94.27 88.85c-0.448 1.088-0.688 2.496-0.64 3.36" stroke="#5D7259" stroke-width=".4"/>
  <path d="m97.04 88.3c-0.16 0.944-0.272 2.112-0.272 2.8" stroke="#5D7259" stroke-width=".4"/>
  <path d="m103.1 83.17c0.912-0.656 1.696-0.384 1.664 0.64-0.48 1.328-0.368 1.872 0.496 1.936 0.368-0.112 0.656-0.48 0.784-0.848 0.368 0.72 1.264 0.752 1.872 0.32 0.4-0.432 0.336-1.024 0.096-1.472 1.04-0.32 1.36-0.944 1.008-1.424-0.224-0.48-0.896-0.608-1.184-0.64 0.464-0.784 0.128-1.552-0.48-1.552-0.512-0.112-1.04 0.176-1.312 0.496l-0.576-0.4-1.136 0.832-1.232 2.112z" fill="#F2E9F0" stroke="#202F3F" stroke-width=".6333"/>
  <path d="m105.6 78.37c0.096 0.8 0.576 1.264 1.568 1.008 1.088 0.976 2.256 1.12 2.336 0.48 0.192-0.512-0.096-1.04-0.48-1.248 0.912-0.304 1.056-0.992 0.656-1.2-0.32-0.432-1.2-0.464-1.632-0.192-0.272-0.528-1.616-0.112-2 0.464l-0.448 0.688z" fill="#F2E9F0" stroke="#202F3F" stroke-width=".6667"/>
  <path d="m107.4 74.02c1.6 0.272 2.848 0.08 2.752 1.088-0.08 0.848-1.392 1.072-2.288 0.912l-1.648 0.56-0.208-1.568 1.392-0.992z" fill="#F2E9F0" stroke="#1D2E30" stroke-width=".6667"/>
  <path d="m108.6 72.3c1.168-0.224 1.76 0.016 1.696 0.688-0.08 0.864-1.344 1.216-2.4 1.104l-0.912-0.016-0.112-1.216 1.728-0.56z" fill="#E2D4D4" stroke="#1B2D2F" stroke-width=".6667"/>
  <path d="m107.5 70.93c0.496-0.832 1.408-1.136 1.968-0.72 0.72 0.784 0.176 2.08-0.816 2.848l-1.168 0.736-0.752-1.328 0.768-1.536z" fill="#D1C7C6" stroke="#192C2F" stroke-width=".7"/>
  <path d="m106.6 70.98c-0.784-0.352-1.376 0.368-0.896 1.92l1.264 1.264 0.768-1.136c0-1.056-0.4-2.048-1.136-2.048z" fill="#CEC4C2" stroke="#1B2D2F" stroke-width=".6667"/>
  <path d="m105.1 72.94c-1.216-0.128-1.184 1.216 0.032 2.48l1.392 0.272 0.528-1.44c-0.112-0.672-1.024-1.312-1.952-1.312z" fill="#F2E8F0" stroke="#1D2E31" stroke-width=".6667"/>
  <path d="m103.4 75.7c-1.104-0.16-1.424 0.448-0.8 1.392-0.976-0.144-1.088 0.768-0.064 1.616l1.808 0.72 1.616-1.2-0.016-1.552-1.008-0.416-0.736-0.656-0.8 0.096z" fill="#F2E8F0" stroke="#1D2E30" stroke-width=".6667"/>
  <path d="m102.2 79.63c-1.76-0.304-2.288 0.544-1.216 1.632-1.216 0.176-1.456 0.992-1.088 1.536 0.416 0.448 1.264 0.544 1.712 0.512 0.368 0.912 1.264 1.056 1.776 0.528l1.168-1.856-0.016-2-1.088-0.544-1.248 0.192z" fill="#F2E9F0" stroke="#1F303B" stroke-width=".7"/>
  <path d="m105.1 79.73c0.352-1.392 0.832-2.992 1.184-3.92" stroke="#587157" stroke-width=".6667"/>
  <path d="m104.1 80.93c0.128 0.576 0.224 1.888 0.128 2.768" stroke="#587157" stroke-width=".6"/>
  <path d="m107.5 82.43-1.2 0.544" stroke="#C29FB0" stroke-width=".3333"/>
  <path d="m107.7 81.18-1.12 0.608" stroke="#C29FB0" stroke-width=".3333"/>
  <path d="m108.1 78.78-1.472 0.352" stroke="#C29FB0" stroke-width=".3667"/>
  <path d="m109 74.64-1.376 0.384" stroke="#978B75" stroke-width=".3667"/>
  <path d="m109.3 72.56-1.152 0.416" stroke="#978B75" stroke-width=".3333"/>
  <path d="m108.8 70.8-0.912 1.392" stroke="#978B75" stroke-width=".3"/>
  <path d="m106.7 71.42 0.464 1.728" stroke="#978B75" stroke-width=".3"/>
  <path d="m104.8 73.57 1.184 1.136" stroke="#978B75" stroke-width=".3667"/>
  <path d="m103.3 76.58 1.136 0.672" stroke="#978B75" stroke-width=".3667"/>
  <path d="m101.8 80.29 0.448 1.072" stroke="#C29FB0" stroke-width=".3333"/>
  <path d="m100.8 82.1 1.2 0.368" stroke="#C29FB0" stroke-width=".3333"/>
  <path d="m102 82.7 0.528 0.832" stroke="#C29FB0" stroke-width=".3875"/>
  <ellipse cx="106.8" cy="73.8" rx=".5472" ry=".852" fill="#CFC496" stroke="#4A624B" stroke-width=".3333"/>
  <ellipse cx="106.8" cy="75.93" rx=".5957" ry=".9006" fill="#93A780" stroke="#4A624B" stroke-width=".3667"/>
  <ellipse cx="107.6" cy="78.76" rx=".5192" ry=".6848" fill="#D7B8A6" stroke="#64584D" stroke-width=".3"/>
  <ellipse cx="103" cy="82.3" rx=".5472" ry=".749" fill="#D7B8A6" stroke="#64584D" stroke-width=".3333"/>
  <path d="m108.7 103.3 1.056 0.288" stroke="#5D7259" stroke-width=".3333"/>
  <path d="m111.8 104.4 1.152 0.336" stroke="#5D7259" stroke-width=".3333"/>
  <path d="m92.46 87.55-0.768 0.688" stroke="#5D7259" stroke-width=".3667"/>
  <path d="m96.88 87.15-2.336 0.176" stroke="#485D49" stroke-width=".4"/>
  <path d="m94.13 87.58 2.272 0.688" stroke="#485D49" stroke-width=".4"/>
  <path d="m91.5 90.05 2.432-1.376" stroke="#485D49" stroke-width=".3667"/>
  <path d="m90.45 102.2 1.152-0.896" stroke="#5D7259" stroke-width=".3667"/>
  <path d="m95.47 101h1.264" stroke="#5D7259" stroke-width=".4"/>
  <path d="m92.24 101.2h2.592" stroke="#5D7259" stroke-width=".3667"/>
  <path d="m90.35 103.9 2.16-0.464" stroke="#5D7259" stroke-width=".3667"/>
  <path d="m108 103.4h1.632" stroke="#5D7259" stroke-width=".4"/>
  <path d="m109.9 105.2h2.432" stroke="#5D7259" stroke-width=".3667"/>
  <path d="m111.4 107.6 2.32 0.48" stroke="#5D7259" stroke-width=".4"/>
  <path d="m99.15 95.63 0.896 1.312" stroke="#475C49" stroke-width=".4"/>
  <path d="m104.8 97.22-1.312 1.52" stroke="#475C49" stroke-width=".4"/>
</svg>
